<svg width="664" height="48" viewBox="0 0 664 48" fill="none" xmlns="http://www.w3.org/2000/svg">
<path opacity="0.4" d="M34 24C34 29.5228 29.5228 34 24 34C18.4772 34 14 29.5228 14 24C14 18.4772 18.4772 14 24 14C29.5228 14 34 18.4772 34 24Z" fill="#FEDF6F"/>
<path d="M34 24C34 29.5228 29.5228 34 24 34C18.4772 34 14 29.5228 14 24C14 18.4772 18.4772 14 24 14C29.5228 14 34 18.4772 34 24Z" stroke="#FEDF6F" stroke-width="3"/>
<path d="M24 4C23.2454 4.66666 22.189 6.4 24 8M24 40C24.7546 40.6666 25.811 42.4 24 44M39 9.00542C37.937 8.93964 35.8506 9.44586 36.0084 11.9969M10.9915 35C11.0573 36.063 10.5511 38.1494 8 37.9916M10.0054 9C9.93958 10.064 10.4463 12.1526 13 11.9946M36 35.0052C37.063 34.943 39.1494 35.4216 38.9916 37.8336M44 24C43.3334 23.2454 41.6 22.189 40 24M8 23C7.33334 23.7546 5.6 24.811 4 23" stroke="#FEDF6F" stroke-width="3" stroke-linecap="round"/>
<path opacity="0.4" d="M123 23C123 16.9249 118.075 12 112 12C106.246 12 101.525 16.4172 101.041 22.0454C95.968 22.5282 92 26.8006 92 32C92 37.5228 96.4772 42 102 42H123C127.971 42 132 37.9706 132 33C132 28.0294 127.971 24 123 24L122.955 24.0002C122.985 23.6708 123 23.3372 123 23Z" fill="#B8CEDC"/>
<path d="M122.955 24.0002C122.97 24 122.985 24 123 24C127.971 24 132 28.0294 132 33C132 37.9706 127.971 42 123 42H102C96.4772 42 92 37.5228 92 32C92 26.8006 95.968 22.5282 101.041 22.0454M122.955 24.0002C122.985 23.6708 123 23.3372 123 23C123 16.9249 118.075 12 112 12C106.246 12 101.525 16.4172 101.041 22.0454M122.955 24.0002C122.751 26.269 121.857 28.3392 120.486 30M101.041 22.0454C101.357 22.0154 101.676 22 102 22C104.252 22 106.329 22.7442 108.001 24" stroke="#B8CEDC" stroke-width="3" stroke-linecap="round" stroke-linejoin="round"/>
<path d="M93.9188 20.3874C92.4373 14.9436 95.7184 9.34794 101.247 7.88926M93.9188 20.3874L92 20.8936M93.9188 20.3874C94.2872 21.7412 94.9154 22.958 95.7365 24M101.247 7.88926L100.733 6M101.247 7.88926C105.333 6.81126 109.504 8.29438 112 11.3392M94.953 12.6459L92.9288 11.4926M110.281 6.9145L109.114 8.90988" stroke="#B8CEDC" stroke-width="3" stroke-linecap="round"/>
<path d="M220.002 24C220.002 35.0456 211.048 44 200.002 44C188.956 44 180.002 35.0456 180.002 24C180.002 12.9543 188.956 4 200.002 4C211.048 4 220.002 12.9543 220.002 24Z" stroke="#C3B2E7" stroke-width="3"/>
<path opacity="0.4" fill-rule="evenodd" clip-rule="evenodd" d="M220.003 23.9998C220.003 29.2756 217.96 34.0742 214.623 37.648L207.235 36.3108L204.731 43.4376C203.215 43.805 201.632 43.9998 200.003 43.9998C197.168 43.9998 194.471 43.41 192.027 42.3462L192.106 34.3328L184.009 34.4198H182.928C181.327 31.8012 180.311 28.7858 180.062 25.5554L186.396 20.8774L183.114 13.4407L183.076 13.343C185.566 9.39562 189.399 6.38006 193.933 4.9375L194.003 4.9998L200.036 9.24462L206.003 4.9998L206.08 4.93976C210.153 6.23734 213.66 8.8045 216.135 12.1761L216.063 12.3915L213.61 18.7794L219.997 23.4966L219.998 23.562C220.001 23.7076 220.003 23.8536 220.003 23.9998ZM200.588 18.6979C200.239 18.434 199.767 18.434 199.418 18.6979L194.913 22.108C194.564 22.3718 194.419 22.8394 194.552 23.2664L196.273 28.7842C196.406 29.211 196.788 29.5 197.218 29.5H202.788C203.218 29.5 203.6 29.211 203.733 28.7842L205.454 23.2664C205.587 22.8394 205.442 22.3718 205.093 22.108L200.588 18.6979Z" fill="#C3B2E7"/>
<path d="M199.417 18.6979C199.766 18.434 200.238 18.434 200.587 18.6979L205.092 22.108C205.441 22.3718 205.586 22.8394 205.453 23.2664L203.732 28.7842C203.599 29.211 203.217 29.5 202.787 29.5H197.217C196.787 29.5 196.405 29.211 196.272 28.7842L194.551 23.2664C194.418 22.8394 194.563 22.3718 194.912 22.108L199.417 18.6979Z" stroke="#C3B2E7" stroke-width="3"/>
<path d="M200.002 18V10M206.002 22L214.002 19M204.002 30L208.002 36M196.002 29L192.002 34M194.002 23L186.002 21" stroke="#C3B2E7" stroke-width="3" stroke-linecap="round" stroke-linejoin="round"/>
<path d="M194.002 5L200.035 9.24482L206.002 5M180.002 25.5996L186.395 20.8776L183.113 13.4409M214.943 37.7062L207.234 36.311L204.533 44M216.062 12.3917L213.609 18.7796L220.002 23.5014M192.022 42.8118L192.105 34.333L184.009 34.42" stroke="#C3B2E7" stroke-width="3" stroke-linejoin="round"/>
<path opacity="0.4" d="M308 24C308 35.0456 299.046 44 288 44C276.954 44 268 35.0456 268 24C268 12.9543 276.954 4 288 4C299.046 4 308 12.9543 308 24Z" fill="#F9A474"/>
<path d="M308 24C308 35.0456 299.046 44 288 44C276.954 44 268 35.0456 268 24C268 12.9543 276.954 4 288 4C299.046 4 308 12.9543 308 24Z" stroke="#F9A474" stroke-width="3"/>
<path d="M268 24C272.561 28.8578 279.822 32 288 32C296.178 32 303.439 28.8578 308 24" stroke="#F9A474" stroke-width="3"/>
<path d="M288 4V44" stroke="#F9A474" stroke-width="3" stroke-linecap="round" stroke-linejoin="round"/>
<path d="M274.311 10C273.548 13 274.08 18 277.132 22C280.342 26.2056 282.365 32 274.739 38" stroke="#F9A474" stroke-width="3" stroke-linecap="round" stroke-linejoin="round"/>
<path d="M301.689 10C302.452 13 301.92 18 298.868 22C295.658 26.2056 293.635 32 301.261 38" stroke="#F9A474" stroke-width="3" stroke-linecap="round" stroke-linejoin="round"/>
<path opacity="0.4" d="M373.437 13.7217L382 31.9982C377.667 31.9982 376.348 29.7124 371.826 27.4266C368.209 25.5982 363.159 25.9028 361.652 26.2838L367.715 21.9976C368.332 21.5614 368.64 21.3434 368.739 21.0114C368.837 20.6794 368.698 20.3284 368.419 19.6262L367.57 17.49C367.253 16.6912 367.094 16.2918 366.808 16.002C366.708 15.9011 366.597 15.8111 366.478 15.7335C366.137 15.5109 365.714 15.4358 364.868 15.2857L358.366 14.1322C356.997 13.8894 356 12.6994 356 11.3091C356 9.56254 357.548 8.22174 359.277 8.4714L368.069 9.74114C369.652 9.96984 370.444 10.0842 371.104 10.4616C371.379 10.619 371.635 10.8085 371.866 11.0262C372.419 11.5485 372.758 12.2729 373.437 13.7217Z" fill="#B8CEDC"/>
<path d="M373.437 13.7217L382 31.9982C377.667 31.9982 376.348 29.7124 371.826 27.4266C368.209 25.5982 363.159 25.9028 361.652 26.2838L367.715 21.9976C368.332 21.5614 368.64 21.3434 368.739 21.0114C368.837 20.6794 368.698 20.3284 368.419 19.6262L367.57 17.49C367.253 16.6912 367.094 16.2918 366.808 16.002C366.708 15.9011 366.597 15.8111 366.478 15.7335C366.137 15.5109 365.714 15.4358 364.868 15.2857L358.366 14.1322C356.997 13.8894 356 12.6994 356 11.3091C356 9.56254 357.548 8.22174 359.277 8.4714L368.069 9.74114C369.652 9.96984 370.444 10.0842 371.104 10.4616C371.379 10.619 371.635 10.8085 371.866 11.0262C372.419 11.5485 372.758 12.2729 373.437 13.7217Z" stroke="#B8CEDC" stroke-width="3" stroke-linecap="round" stroke-linejoin="round"/>
<path d="M390 26.0039C393.314 26.0039 396 23.3176 396 20.0039C396 16.6902 393.314 14.0039 390 14.0039C386.686 14.0039 384 16.6902 384 20.0039C384 23.3176 386.686 26.0039 390 26.0039Z" stroke="#B8CEDC" stroke-width="3" stroke-linecap="round" stroke-linejoin="round"/>
<path d="M356 36.1686C358.111 29.1054 367.537 32.3472 375 36.1686C382.463 39.99 390 42.4216 394 36.1686" stroke="#B8CEDC" stroke-width="3" stroke-linecap="round" stroke-linejoin="round"/>
<path d="M460 8C460 10.2091 461.791 12 464 12C466.209 12 468 10.2091 468 8C468 5.79086 466.209 4 464 4C461.791 4 460 5.79086 460 8Z" stroke="#C7D78D" stroke-width="3"/>
<path opacity="0.4" d="M455.772 20C457.143 22.7936 458.609 25.4098 458.27 28.6284C457.729 33.7738 451.49 35.7104 447.5 38.0808C444.886 39.6338 445.864 44 449.072 44C452.961 44 456.432 43.6896 459.941 42.0402L463.811 39.6586L467.763 42.0402C471.347 43.6896 474.892 44 478.863 44C482.139 44 483.137 39.6338 480.468 38.0808C476.393 35.7104 470.022 33.7738 469.47 28.6284C469.124 25.4098 470.62 22.7936 472.021 20L472.359 19.3906C470.198 17.2921 467.25 16 464 16C460.7 16 457.711 17.3319 455.542 19.4874L455.772 20Z" fill="#C7D78D"/>
<path d="M472.021 20C470.62 22.7936 469.124 25.4098 469.47 28.6284C470.022 33.7738 476.393 35.7104 480.468 38.0808C483.137 39.6338 482.139 44 478.863 44C474.892 44 471.347 43.6896 467.763 42.0402L460.737 37.8056C459.916 37.428 458.916 37.5034 458 37.8056" stroke="#C7D78D" stroke-width="3" stroke-linecap="round" stroke-linejoin="round"/>
<path d="M455.772 20C457.143 22.7936 458.609 25.4098 458.27 28.6284C457.729 33.7738 451.49 35.7104 447.5 38.0808C444.886 39.6338 445.864 44 449.072 44C452.961 44 456.432 43.6896 459.941 42.0402L466.822 37.8056C467.777 37.3566 468.983 37.548 470 38" stroke="#C7D78D" stroke-width="3" stroke-linecap="round" stroke-linejoin="round"/>
<path d="M446 32C450.892 32 453.087 26.5898 453.787 22.8582C453.969 21.8842 454.265 20.913 454.913 20.1628C457.113 17.6135 460.368 16 464 16C467.632 16 470.887 17.6135 473.087 20.1628C473.735 20.913 474.031 21.8842 474.213 22.8582C474.913 26.5898 477.108 32 482 32" stroke="#C7D78D" stroke-width="3" stroke-linecap="round" stroke-linejoin="round"/>
<path d="M572.002 24C572.002 35.0456 563.048 44 552.002 44C540.956 44 532.002 35.0456 532.002 24C532.002 12.9543 540.956 4 552.002 4C563.048 4 572.002 12.9543 572.002 24Z" stroke="#FEDF6F" stroke-width="3"/>
<path opacity="0.4" d="M546.002 16.0017C550.176 12.2291 560.654 10.2581 569.002 14.0304L569.45 14.2181C571.075 17.1104 572.002 20.4478 572.002 24.0018C572.002 24.2324 571.998 24.462 571.99 24.6908C571.994 24.6942 571.998 24.6978 572.002 24.7012L571.988 24.7602C571.989 24.737 571.99 24.7138 571.99 24.6908C569.715 22.6346 566.25 21.474 561.674 21.4712L561.779 22.0018C562.957 27.791 559.431 38.3784 552.002 44.0018C547.822 44.0018 543.941 42.7192 540.732 40.5262L542.002 40.0018C543.891 39.1454 546.543 37.217 548.565 34.3152L548.002 34.0018C542.751 31.481 536.319 21.9206 536.002 12.0017L536.191 11.7517C538.315 9.01447 541.134 6.84359 544.383 5.50391L544.243 6.00173C543.665 8.09831 543.537 12.1632 545.648 16.3507L546.002 16.0017Z" fill="#FEDF6F"/>
<path d="M544.243 6C543.351 9.2381 543.529 17.1714 551.377 23M551.377 23C561.261 20.34 568.252 21.3 572.002 24.6996M551.377 23C552.507 32.3762 545.752 38.3 542.002 40" stroke="#FEDF6F" stroke-width="3" stroke-linecap="round" stroke-linejoin="round"/>
<path d="M546.002 16.0001C550.176 12.2275 560.654 10.2565 569.002 14.0288" stroke="#FEDF6F" stroke-width="3" stroke-linejoin="round"/>
<path d="M561.779 22C562.957 27.7894 559.431 38.3766 552.002 44" stroke="#FEDF6F" stroke-width="3" stroke-linejoin="round"/>
<path d="M548.002 34C542.751 31.4792 536.319 21.919 536.002 12" stroke="#FEDF6F" stroke-width="3" stroke-linejoin="round"/>
<path opacity="0.4" d="M656.284 21.5912C659.215 19.5276 659.879 15.5436 657.769 12.6832C652.99 6.20556 644 1.83413 636.984 7.88446C634.327 10.1759 632.212 12.9873 630.798 16.2002L628.002 22.5548V23C628.002 28.5408 634.855 34.9952 640.811 36.9392C640.939 36.9808 641.069 37.0098 641.201 37.0292C641.971 36.462 642.817 36.0076 643.811 35.7656L653.705 33.3564C658.788 32.1186 660.05 25.6486 655.786 22.682L655.133 22.2408C655.667 21.9726 656.016 21.7804 656.284 21.5912Z" fill="#F682A5"/>
<path d="M627.965 22.4924C627.791 27.9374 634.207 34.6486 640.223 36.7584M627.965 22.4924C627.356 23.5378 621.134 28.5254 621.026 30.638C620.499 34.8336 627.627 42.7156 633.123 42.9848C635.175 43.276 638.022 39.8222 640.908 37.2562C642.497 35.8428 644.788 35.5158 653.957 33.2406C657.284 32.6622 661.281 26.923 655.355 22.0582M627.965 22.4924C629.822 18.09 633.031 9.5794 639.325 6.21856C641.881 4.7663 648.52 3.42916 655.025 9.61354C657.263 11.4957 661.142 15.6187 657.532 20.369C655.124 23.1746 651.484 22.3624 651.131 27.2146" stroke="#F682A5" stroke-width="3" stroke-linecap="round" stroke-linejoin="round"/>
</svg>
